<svg width="130" height="130" viewBox="0 0 130 130" fill="none" xmlns="http://www.w3.org/2000/svg">
<path d="M41.665 64.4421L49.3025 66.9879C54.3509 68.6671 56.8696 69.5121 58.6788 71.3213C60.4879 73.1304 61.3329 75.6546 63.0121 80.6921L65.5579 88.3296C69.8046 101.08 71.9279 107.45 75.8334 107.45C79.7334 107.45 81.8621 101.08 86.1088 88.3296L101.481 42.2229C104.471 33.2529 105.966 28.7679 103.599 26.4008C101.232 24.0338 96.7471 25.5288 87.7825 28.5133L41.6596 43.8967C28.925 48.1379 22.5442 50.2613 22.5442 54.1667C22.5442 58.0667 28.9196 60.1954 41.665 64.4421Z" fill="#545454" fill-opacity="0.25"/>
<path d="M41.665 64.4421L49.3025 66.9879C54.3509 68.6671 56.8696 69.5121 58.6788 71.3213C60.4879 73.1304 61.3329 75.6546 63.0121 80.6921L65.5579 88.3296C69.8046 101.08 71.9279 107.45 75.8334 107.45C79.7334 107.45 81.8621 101.08 86.1088 88.3296L101.481 42.2229C104.471 33.2529 105.966 28.7679 103.599 26.4008C101.232 24.0338 96.7471 25.5288 87.7825 28.5133L41.6596 43.8967C28.925 48.1379 22.5442 50.2613 22.5442 54.1667C22.5442 58.0667 28.9196 60.1954 41.665 64.4421Z" fill="#4474EE"/>
<path d="M51.5992 74.9775L40.43 71.2563C39.6485 70.9957 38.8178 70.9169 38.0012 71.0258C37.1846 71.1347 36.4035 71.4284 35.7175 71.8846L29.8134 75.8171C29.1145 76.2827 28.5659 76.9415 28.2345 77.7131C27.903 78.4848 27.8029 79.3361 27.9464 80.1636C28.0898 80.9911 28.4707 81.759 29.0425 82.3741C29.6144 82.9891 30.3527 83.4247 31.1675 83.6279L41.7571 86.2713C42.2337 86.3902 42.6689 86.6366 43.0162 86.9839C43.3635 87.3312 43.6098 87.7664 43.7288 88.2429L46.3721 98.8325C46.5753 99.6474 47.0109 100.386 47.626 100.958C48.241 101.529 49.009 101.91 49.8365 102.054C50.664 102.197 51.5153 102.097 52.287 101.766C53.0586 101.434 53.7173 100.886 54.183 100.187L58.1155 94.2825C58.5717 93.5965 58.8654 92.8155 58.9743 91.9989C59.0832 91.1823 59.0043 90.3516 58.7438 89.57L55.0225 78.4008C54.7566 77.6038 54.3088 76.8796 53.7146 76.2854C53.1205 75.6913 52.3963 75.2435 51.5992 74.9775Z" fill="#545454"/>
</svg>
