<svg width="32" height="32" viewBox="0 0 32 32" fill="none" xmlns="http://www.w3.org/2000/svg">
<g clip-path="url(#clip0_148_216)">
<path d="M16.0003 2.66663C23.3643 2.66663 29.3337 8.63596 29.3337 16C29.3337 23.364 23.3643 29.3333 16.0003 29.3333C8.63633 29.3333 2.66699 23.364 2.66699 16C2.66699 8.63596 8.63633 2.66663 16.0003 2.66663ZM16.0003 7.99996C15.6467 7.99996 15.3076 8.14044 15.0575 8.39048C14.8075 8.64053 14.667 8.97967 14.667 9.33329V16C14.6671 16.3536 14.8076 16.6926 15.0577 16.9426L19.0577 20.9426C19.3091 21.1855 19.6459 21.3199 19.9955 21.3169C20.3451 21.3138 20.6795 21.1736 20.9267 20.9264C21.174 20.6792 21.3142 20.3448 21.3172 19.9952C21.3203 19.6456 21.1859 19.3088 20.943 19.0573L17.3337 15.448V9.33329C17.3337 8.97967 17.1932 8.64053 16.9431 8.39048C16.6931 8.14044 16.3539 7.99996 16.0003 7.99996Z" fill="#4474EE"/>
</g>
<defs>
<clipPath id="clip0_148_216">
<rect width="32" height="32" fill="white"/>
</clipPath>
</defs>
</svg>
