<svg width="108" height="108" viewBox="0 0 108 108" fill="none" xmlns="http://www.w3.org/2000/svg">
<g clip-path="url(#clip0_148_172)">
<path d="M54 0C24.1768 0 0 24.1768 0 54C0 83.8249 24.1768 108 54 108C83.8249 108 108 83.8249 108 54C108 24.1768 83.8249 0 54 0ZM54 101.356C27.9467 101.356 6.75 80.0533 6.75 53.9998C6.75 27.9465 27.9467 6.74979 54 6.74979C80.0533 6.74979 101.25 27.9466 101.25 53.9998C101.25 80.053 80.0533 101.356 54 101.356ZM75.5511 34.2411L43.8681 66.123L29.6003 51.8552C28.2824 50.5373 26.146 50.5373 24.8264 51.8552C23.5085 53.1731 23.5085 55.3095 24.8264 56.6274L41.531 73.3337C42.8489 74.6499 44.9853 74.6499 46.3049 73.3337C46.4568 73.1818 46.5868 73.0163 46.7049 72.8443L80.3267 39.0149C81.6429 37.697 81.6429 35.5606 80.3267 34.2411C79.0071 32.9231 76.8707 32.9231 75.5511 34.2411Z" fill="#4474EE"/>
</g>
<defs>
<clipPath id="clip0_148_172">
<rect width="108" height="108" fill="white"/>
</clipPath>
</defs>
</svg>
