<svg width="32" height="32" viewBox="0 0 32 32" fill="none" xmlns="http://www.w3.org/2000/svg">
<path fill-rule="evenodd" clip-rule="evenodd" d="M12.7893 4.26666C12.5796 4.4564 12.3593 4.63403 12.1293 4.79866C11.732 5.06532 11.2853 5.24932 10.816 5.34266C10.612 5.38266 10.3987 5.39999 9.97332 5.43332C8.90532 5.51866 8.37066 5.56132 7.92532 5.71866C7.41612 5.89844 6.95363 6.18995 6.57179 6.57179C6.18995 6.95363 5.89844 7.41612 5.71866 7.92532C5.56133 8.37066 5.51866 8.90532 5.43333 9.97332C5.41878 10.2557 5.38851 10.537 5.34266 10.816C5.24933 11.2853 5.06533 11.732 4.79866 12.1293C4.68266 12.3027 4.54399 12.4653 4.26666 12.7893C3.57199 13.6053 3.22399 14.0133 3.01999 14.44C2.54933 15.4267 2.54933 16.5733 3.01999 17.56C3.22399 17.9867 3.57199 18.3947 4.26666 19.2107C4.54399 19.5347 4.68266 19.6973 4.79866 19.8707C5.06533 20.268 5.24933 20.7147 5.34266 21.184C5.38266 21.388 5.39999 21.6013 5.43333 22.0267C5.51866 23.0947 5.56133 23.6293 5.71866 24.0747C5.89844 24.5839 6.18995 25.0463 6.57179 25.4282C6.95363 25.81 7.41612 26.1015 7.92532 26.2813C8.37066 26.4387 8.90532 26.4813 9.97332 26.5667C10.3987 26.6 10.612 26.6173 10.816 26.6573C11.2853 26.7507 11.732 26.936 12.1293 27.2013C12.3027 27.3173 12.4653 27.456 12.7893 27.7333C13.6053 28.428 14.0133 28.776 14.44 28.98C15.4267 29.4507 16.5733 29.4507 17.56 28.98C17.9867 28.776 18.3947 28.428 19.2107 27.7333C19.5347 27.456 19.6973 27.3173 19.8707 27.2013C20.268 26.9347 20.7147 26.7507 21.184 26.6573C21.388 26.6173 21.6013 26.6 22.0267 26.5667C23.0947 26.4813 23.6293 26.4387 24.0747 26.2813C24.5839 26.1015 25.0463 25.81 25.4282 25.4282C25.81 25.0463 26.1015 24.5839 26.2813 24.0747C26.4387 23.6293 26.4813 23.0947 26.5667 22.0267C26.6 21.6013 26.6173 21.388 26.6573 21.184C26.7507 20.7147 26.936 20.268 27.2013 19.8707C27.3173 19.6973 27.456 19.5347 27.7333 19.2107C28.428 18.3947 28.776 17.9867 28.98 17.56C29.4507 16.5733 29.4507 15.4267 28.98 14.44C28.776 14.0133 28.428 13.6053 27.7333 12.7893C27.5436 12.5796 27.366 12.3593 27.2013 12.1293C26.9349 11.7318 26.75 11.2854 26.6573 10.816C26.6115 10.537 26.5812 10.2557 26.5667 9.97332C26.4813 8.90532 26.4387 8.37066 26.2813 7.92532C26.1015 7.41612 25.81 6.95363 25.4282 6.57179C25.0463 6.18995 24.5839 5.89844 24.0747 5.71866C23.6293 5.56132 23.0947 5.51866 22.0267 5.43332C21.7443 5.41878 21.463 5.38851 21.184 5.34266C20.7145 5.24997 20.2681 5.06507 19.8707 4.79866C19.641 4.63368 19.4206 4.45607 19.2107 4.26666C18.3947 3.57199 17.9867 3.22399 17.56 3.01999C17.0729 2.78717 16.5399 2.66632 16 2.66632C15.4601 2.66632 14.9271 2.78717 14.44 3.01999C14.0133 3.22399 13.6053 3.57199 12.7893 4.26666ZM21.108 10.8933C21.3111 11.0968 21.4251 11.3725 21.4251 11.66C21.4251 11.9475 21.3111 12.2232 21.108 12.4267L12.4267 21.1093C12.3277 21.2176 12.2079 21.3047 12.0744 21.3653C11.9409 21.426 11.7965 21.459 11.6499 21.4623C11.5033 21.4656 11.3575 21.4392 11.2214 21.3846C11.0853 21.33 10.9616 21.2484 10.858 21.1447C10.7543 21.041 10.6727 20.9174 10.6181 20.7813C10.5635 20.6451 10.537 20.4994 10.5403 20.3528C10.5436 20.2062 10.5766 20.0618 10.6373 19.9282C10.698 19.7947 10.7851 19.6749 10.8933 19.576L19.5733 10.8947C19.7768 10.6916 20.0525 10.5775 20.34 10.5775C20.6275 10.5775 20.9032 10.6916 21.1067 10.8947M21.0627 19.6187C21.0627 20.0023 20.9102 20.3703 20.6389 20.6416C20.3676 20.9129 19.9997 21.0653 19.616 21.0653C19.2323 21.0653 18.8643 20.9129 18.593 20.6416C18.3217 20.3703 18.1693 20.0023 18.1693 19.6187C18.1693 19.235 18.3217 18.867 18.593 18.5957C18.8643 18.3244 19.2323 18.172 19.616 18.172C19.9997 18.172 20.3676 18.3244 20.6389 18.5957C20.9102 18.867 21.0627 19.235 21.0627 19.6187ZM12.3827 13.832C12.7663 13.832 13.1343 13.6796 13.4056 13.4083C13.6769 13.137 13.8293 12.769 13.8293 12.3853C13.8293 12.0016 13.6769 11.6337 13.4056 11.3624C13.1343 11.0911 12.7663 10.9387 12.3827 10.9387C11.999 10.9387 11.631 11.0911 11.3597 11.3624C11.0884 11.6337 10.936 12.0016 10.936 12.3853C10.936 12.769 11.0884 13.137 11.3597 13.4083C11.631 13.6796 11.999 13.832 12.3827 13.832Z" fill="#4474EE"/>
</svg>
