<svg width="32" height="32" viewBox="0 0 32 32" fill="none" xmlns="http://www.w3.org/2000/svg">
<path d="M28.0003 26.6666H5.33366V25.9466L12.0003 19.28L17.067 24.3466C17.3168 24.595 17.6547 24.7343 18.007 24.7343C18.3592 24.7343 18.6972 24.595 18.947 24.3466L28.947 14.3466C29.072 14.2227 29.1712 14.0752 29.2388 13.9127C29.3065 13.7502 29.3414 13.576 29.3414 13.4C29.3414 13.2239 29.3065 13.0497 29.2388 12.8872C29.1712 12.7247 29.072 12.5772 28.947 12.4533C28.6972 12.205 28.3592 12.0656 28.007 12.0656C27.6547 12.0656 27.3168 12.205 27.067 12.4533L18.0003 21.52L12.947 16.4533C12.6972 16.205 12.3592 16.0656 12.007 16.0656C11.6547 16.0656 11.3168 16.205 11.067 16.4533L5.33366 22.1733V15.28L12.0003 8.61329L15.7337 12.3466C15.9835 12.595 16.3214 12.7343 16.6737 12.7343C17.0259 12.7343 17.3638 12.595 17.6137 12.3466L24.0003 5.95996L26.9203 8.87996C27.1714 9.12926 27.5112 9.26862 27.865 9.26737C28.2189 9.26612 28.5577 9.12436 28.807 8.87329C29.0563 8.62222 29.1957 8.2824 29.1944 7.92858C29.1931 7.57476 29.0514 7.23593 28.8003 6.98663L24.9203 3.13329C24.6705 2.88496 24.3326 2.74557 23.9803 2.74557C23.6281 2.74557 23.2901 2.88496 23.0403 3.13329L16.6403 9.53329L12.9203 5.79996C12.6705 5.55162 12.3326 5.41224 11.9803 5.41224C11.6281 5.41224 11.2901 5.55162 11.0403 5.79996L5.33366 11.5066V3.99996C5.33366 3.64634 5.19318 3.3072 4.94313 3.05715C4.69309 2.8071 4.35395 2.66663 4.00033 2.66663C3.6467 2.66663 3.30756 2.8071 3.05752 3.05715C2.80747 3.3072 2.66699 3.64634 2.66699 3.99996V28C2.66699 28.3536 2.80747 28.6927 3.05752 28.9428C3.30756 29.1928 3.6467 29.3333 4.00033 29.3333H28.0003C28.3539 29.3333 28.6931 29.1928 28.9431 28.9428C29.1932 28.6927 29.3337 28.3536 29.3337 28C29.3337 27.6463 29.1932 27.3072 28.9431 27.0571C28.6931 26.8071 28.3539 26.6666 28.0003 26.6666Z" fill="#4474EE"/>
</svg>
